<?xml version="1.0" encoding="utf-8"?>
<!-- Generator: Adobe Illustrator 24.3.0, SVG Export Plug-In . SVG Version: 6.00 Build 0)  -->
<svg version="1.1" id="visual" xmlns="http://www.w3.org/2000/svg" xmlns:xlink="http://www.w3.org/1999/xlink" x="0px" y="0px"
	 viewBox="0 0 624 32.4" style="enable-background:new 0 0 624 32.4;" xml:space="preserve">
<style type="text/css">
	.st0{fill:#FCDFB5;}
	.st1{fill:#D4F4FF;}
	.st2{fill:#B1DBF2;}
	.st3{fill:#FFECD3;}
</style>
<path class="st0" d="M585.2,19.3c-13,1.8-25.9,2-39,1.2c-13-0.8-26.2-2.6-39.2-3.4c-13.1-0.8-26-0.6-39-1.7
	c-13-1.1-25.9-3.5-38.8-2.7c-13,0.8-25.9,4.8-39,5.9c-13,1.1-26.2-0.7-39.2-1.6c-13.1-0.9-26-0.9-39-1s-25.9-0.3-38.8,0
	s-25.9,1.1-39,1.9c-13,0.8-26.2,1.6-39.2,1c-13.1-0.6-26-2.6-39-3.1c-13-0.5-25.9,0.5-38.8,0.9s-25.9,0.2-39-0.3
	c-13-0.5-26.2-1.3-39.2-1.5c-13.1-0.2-26,0.2-32.5,0.4L0,15.5v5.7v3l6.4-0.3c6.5-0.3,19.4-0.9,32.5-0.6c13,0.3,26.2,1.5,39.2,2.3
	c13.1,0.8,26,1.2,39,0.9c13-0.3,25.9-1.3,38.8-1s25.9,1.9,39,2.1c13,0.2,26.2-1,39.2-1.4c13.1-0.4,26,0,39,0s25.9-0.4,38.8-0.4
	s25.9,0.4,39,1.5c13,1.1,26.2,2.9,39.2,1.9c13.1-1,26-4.8,39-5.9c13-1.1,25.9,0.5,38.8,1.1c13,0.6,25.9,0.2,39,0.9
	c13,0.7,26.2,2.5,39.2,3.9c13.1,1.4,26,2.4,39,1.1c13-1.3,25.9-4.9,32.4-6.8l6.4-1.8v-5.4v-5.7l-6.4,1.7
	C611,14.1,598.1,17.5,585.2,19.3z"/>
<path class="st1" d="M617.6,1c-6.5,1-19.4,3-32.4,4.4c-13,1.4-25.9,2.2-39,2.2c-13,0-26.2-0.8-39.2-2c-13.1-1.2-26-2.8-39-3.7
	s-25.9-1.1-38.8-0.1c-13,1-25.9,3.2-39,3.4c-13,0.2-26.2-1.6-39.2-1.9c-13.1-0.3-26,0.9-39,1.3c-13,0.4-25.9,0-38.8-0.5
	c-13-0.5-25.9-1.1-39-0.4c-13,0.7-37.1,4-50.2,3.7c-13.1-0.3-15.1-4.2-28-4.8c-13-0.6-25.9,0.8-38.8,2.1S93.4,9.1,80.3,8.9
	C67.3,8.7,52,5.2,39,3.8C25.9,2.4,13,1.2,6.4,0.6L0,0v5.5l6.4,0.6C13,6.7,25.9,7.9,39,9.3c13,1.4,26.2,3,39.2,3.2
	c13.1,0.2,26-1,39-2.3c13-1.3,25.9-2.7,38.8-2.1c13,0.6,25.9,3.2,39,3.5c13,0.3,26.2-1.7,39.2-2.4c13.1-0.7,26-0.1,39,0.4
	s25.9,0.9,38.8,0.5s25.9-1.6,39-1.3c13,0.3,26.2,2.1,39.2,1.9c13.1-0.2,26-2.4,39-3.4c13-1,25.9-0.8,38.8,0.1
	c13,0.9,25.9,2.5,39,3.7c13,1.2,26.2,2,39.2,2c13.1,0,26-0.8,39-2.2c13-1.4,25.9-3.4,32.4-4.4l6.4-1V0L617.6,1z"/>
<path class="st2" d="M585.2,10.7c-13,1.4-25.9,2.2-39,2.2c-13,0-26.2-0.8-39.2-2c-13.1-1.2-26-2.8-39-3.7c-13-0.9-25.9-1.1-38.8-0.1
	c-13,1-25.9,3.2-39,3.4c-13,0.2-26.2-1.6-39.2-1.9c-13.1-0.3-26,0.9-39,1.3s-25.9,0-38.8-0.5s-25.9-1.1-39-0.4
	c-13,0.7-26.2,2.7-39.2,2.4c-13.1-0.3-26-2.9-39-3.5c-13-0.6-25.9,0.8-38.8,2.1c-13,1.3-25.9,2.5-39,2.3C65.2,12.1,52,10.5,39,9.1
	C25.9,7.7,13,6.5,6.4,5.9L0,5.3v10.2l6.4-0.2c6.5-0.2,19.4-0.6,32.5-0.4c13,0.2,26.2,1,39.2,1.5c13.1,0.5,26,0.7,39,0.3
	c13-0.4,25.9-1.4,38.8-0.9c13,0.5,25.9,2.5,39,3.1c13,0.6,26.2-0.2,39.2-1c13.1-0.8,26-1.6,39-1.9c13-0.3,25.9-0.1,38.8,0
	c13,0.1,25.9,0.1,39,1c13,0.9,26.2,2.7,39.2,1.6c13.1-1.1,26-5.1,39-5.9c13-0.8,25.9,1.6,38.8,2.7c13,1.1,25.9,0.9,39,1.7
	c13,0.8,26.2,2.6,39.2,3.4c13.1,0.8,26,0.6,39-1.2s25.9-5.2,32.4-7l6.4-1.7V5.3l-6.4,1C611,7.3,598.1,9.3,585.2,10.7z"/>
<g>
	<path class="st3" d="M624,21.6l-6.4,1.8c-6.5,1.8-19.4,5.4-32.4,6.8c-13,1.3-25.9,0.3-39-1.1c-13-1.4-26.2-3.2-39.2-3.9
		c-13.1-0.7-26-0.3-39-0.9c-13-0.6-25.9-2.2-38.8-1.1s-25.9,4.9-39,5.9c-13,1-26.2-0.8-39.2-1.9c-13.1-1.1-26-1.5-39-1.5
		s-25.9,0.4-38.8,0.4s-25.9-0.4-39,0c-13,0.4-26.2,1.6-39.2,1.4c-13.1-0.2-26-1.8-39-2.1c-13-0.3-25.9,0.7-38.8,1s-25.9-0.1-39-0.9
		c-13-0.8-26.2-2-39.2-2.3c-13.1-0.3-26,0.3-32.5,0.6L0,24.1v8.3h624V21.6z"/>
</g>
</svg>
