<svg id="Layer_1" data-name="Layer 1" xmlns="http://www.w3.org/2000/svg" viewBox="0 0 181.37 180.44"><defs><style>.cls-1{fill:#296bb4;}.cls-2{fill:none;}.cls-3{fill:#60c3aa;}</style></defs><path class="cls-1" d="M121.12,47a31.14,31.14,0,0,0,0-11.09C117.91,17.14,98.15-.74,79,0c-6.45-.16-20.83,4.3-18.34,7,.63,0,25.87,9.21,29.58,15.61C94,26.52,106,39.05,106,39.2a46.93,46.93,0,0,0-28-2.83A53.34,53.34,0,0,0,46.76,55.83a73.52,73.52,0,0,0-14.86,45.4A228.22,228.22,0,0,0,.16,140.48s-.49,2,.26,2.84c.3.09,21.69-18.31,22.07-17.55q5.39-5.92,11-11.27s-.43,7.15.92,8.09c1.29.78,12.14,1.37,12.19,1.52a202.36,202.36,0,0,0-18.57,16.6c-.84,1.35-10.14,26.88-9,32.13,1.82,1.12,5.48-.83,6.14-1.59,1-3.51,36.08-43.94,36.48-42.37,8.66,2.05,22.93,2.76,34.08,3.37,40.38,2.24,51-22.45,51.15-23.78h0a143.72,143.72,0,0,1,10.61,19.89c11.84,27.51,13.26,47.63,17.34,51,1.89,1.66,4,1.36,4.74-1.21,2.22-7.36,2.24-15.83,1-23.07-.53-2.26-6.22-36.56-21.51-49.82-3-2.72-12.34-8.61-12.38-8.5q-.47-6.69-.92-13.37s1.43,1,8,2.52a36.19,36.19,0,0,0,12.46.63,22.66,22.66,0,0,0,4.6-4.1c2.34-2.9-2.9-6.68-2.92-6.66s-3.56-6.62-7.06-9.58c-3.42-3.12-12.94-6.39-13-6.28q-5.17-.49-10.5-.49A202,202,0,0,0,121.12,47Z"/><path class="cls-2" d="M79.58,75.5c4,1.38,7.84,3.38,8.5,5.83a1,1,0,0,1,0,.17c2.4-2.42,5.92-5.13,9.23-5.15,4.68,0,9.31,3.06,11.71,5.7,3.19-4.09,7-5.67,8.14-11.47s-3.12-13-5.37-16.72a45.59,45.59,0,0,0-8.33-2c-7.7-.9-9.4,1.95-15.79,2.24C88.35,58,85.09,71.32,79.58,75.5Z"/><path class="cls-2" d="M75.37,101.6C77.92,93,84.2,90.1,83.28,82.89c-.33-2.56-3.6-4.63-6.93-6.18C73.54,77,69.71,76,63.46,77c-7,1-14,2.78-18.34,3.84-2.61,10.78-2.33,19.48.08,21.31,1.12.85,4.84,0,8,1.82,4,2.29,5.82,7.75,6.2,8.86,1.37,4,7.73,6.72,16.56,8.29A32.56,32.56,0,0,1,75.37,101.6Z"/><path class="cls-2" d="M74.77,72.26c2.8-1.87,8.26-6.54,10.8-18.14-5.26-.26-18.9-3.64-24.55-5.56a80,80,0,0,0-15.4,30.28,111.19,111.19,0,0,1,15.54-5.06C71.83,71.06,73.68,73,74.77,72.26Z"/><path class="cls-2" d="M107.53,84.38c-2.33-1.49-5.76-3.79-10.06-3.89-3.35-.08-6.77,1.55-9.14,2.93-.15,5-5.87,8.77-8.92,18-2.69,8.16.88,16,1.72,20.38a159.64,159.64,0,0,0,33.43-.06C109.2,114.71,101.26,96,107.53,84.38Z"/><path class="cls-2" d="M122.43,48c.43.3.87.61,1.29.92"/><path class="cls-3" d="M119.08,121.24c-2.52-7-16.17-23.79-6.89-36.8,2-2.77,4.3-4.53,6.17-6.46,4.86,0,12.5.5,17.53,5.59,4,4,8.38,10.05,10.66,12.11l-.27-3.94A58.52,58.52,0,0,0,137,78.92c-4.13-4-11.44-4-16.76-3.28a10,10,0,0,0,1.54-4.23c.74-5.74-4.33-12.93-7.92-16.93,2.79.78,5,1.06,6.69-.47a13.67,13.67,0,0,0,3.15-5.14c-.42-.31-.86-.62-1.29-.92-.89.53-2.07,1.32-3.31,2.08-4.15,2.56-9.09-.26-15-1.53-7.28-1.55-9.69.58-18.69,1.07C80.59,49.82,68.18,48,62,47.37a56.43,56.43,0,0,1,11.33-9.85,54.91,54.91,0,0,0-10,4.24c-24.69,19.77-29.73,60.53-25,64.08.91.68,8.51.18,11.31,1.75,3.67,2,3.78,7,4,7.82,3.07,12.26,57.46,20.61,87.17,2.19.6-.64,1.15-1.27,1.65-1.88C136.23,118.22,128,120.08,119.08,121.24ZM103.49,51.88a45.59,45.59,0,0,1,8.33,2c2.25,3.72,6.51,11,5.37,16.72s-5,7.38-8.14,11.47c-2.4-2.64-7-5.73-11.71-5.7-3.31,0-6.83,2.73-9.23,5.15a1,1,0,0,0,0-.17c-.66-2.45-4.46-4.45-8.5-5.83C85.09,71.32,88.35,58,87.7,54.12,94.09,53.83,95.79,51,103.49,51.88ZM61,48.56c5.65,1.92,19.29,5.3,24.55,5.56-2.54,11.6-8,16.27-10.8,18.14-1.09.73-2.94-1.2-13.61,1.52a111.19,111.19,0,0,0-15.54,5.06A80,80,0,0,1,61,48.56Zm-1.6,64.23c-.38-1.11-2.19-6.57-6.2-8.86-3.18-1.8-6.9-1-8-1.82-2.41-1.83-2.69-10.53-.08-21.31C49.51,79.74,56.46,78,63.46,77c6.25-.92,10.08,0,12.89-.25,3.33,1.55,6.6,3.62,6.93,6.18C84.2,90.1,77.92,93,75.37,101.6A32.56,32.56,0,0,0,76,121.08C67.15,119.51,60.79,116.78,59.42,112.79Zm21.71,9c-.84-4.38-4.41-12.22-1.72-20.38,3-9.26,8.77-13,8.92-18,2.37-1.38,5.79-3,9.14-2.93,4.3.1,7.73,2.4,10.06,3.89-6.27,11.6,1.67,30.33,7,37.39A159.64,159.64,0,0,1,81.13,121.83Z"/></svg>