<svg id="Layer_1" data-name="Layer 1" xmlns="http://www.w3.org/2000/svg" viewBox="0 0 181.37 180.44"><defs><style>.cls-1{fill:#0a0505;}.cls-2{fill:#007683;}.cls-3{fill:#007b86;}</style></defs><path class="cls-1" d="M108.52,82.77c3.28-4.65,8.44-6.06,9.67-12.19,1.57-7.9-5.19-14.82-4.66-15.15h0c-2.76-.32-6.07-1.08-10.05-1.55-7.86-.92-9.46.34-16.2.29h0c1.68,1.29.88,12.4-7,19.35,2.25.69,6.66,3.57,7.8,7.81,1.68,6.22-5.21,9.63-8.67,20.12-4,12.19.34,22.53-.48,22.68a174.4,174.4,0,0,0,38.42.88C114.12,120.92,99.36,95.74,108.52,82.77Zm-11-6.28c-5.94-.15-10.08,3.11-10.28,2.72s4.31-4.82,10.15-4.86c7.26,0,12.54,6.66,12.28,7S104.67,76.66,97.47,76.49Z"/><path class="cls-1" d="M120.57,54c-1.74,1.56-4,1.75-6.86,1.44,1.36.51,9.13,7.9,8.09,16a10,10,0,0,1-.69,2.56c4.17,0,11.34,1.1,15.91,5s7.48,9.46,9.32,13.78l-.63-9.26s1.43,1,8,2.52a36.19,36.19,0,0,0,12.46.63c.84-.77,1.69-1.52,2.52-2.27,0,0,1.05,1.73,2.08-1.83s-2.9-6.68-2.92-6.66-3.56-6.62-7.06-9.58c-3.42-3.12-12.94-6.39-13-6.28q-5.17-.49-10.5-.49c-4.68-4-9.45-7.69-14.27-11.12C123.37,48.81,122.69,52.11,120.57,54Z"/><path class="cls-1" d="M75.37,101.6C77.92,93,84.2,90.1,83.28,82.89c-.54-4.19-3.16-7.07-4-8.5A20.8,20.8,0,0,1,76.89,76L41.08,81.52c-3.48,12.14-3.51,22.27-.9,24.25,1.12.85,4.57-.42,7.74,1.39a11.05,11.05,0,0,1,5.46,6.24c1.79,5.22,12.22,8.84,25.52,10.73C78,124.11,72,112.85,75.37,101.6Z"/><path class="cls-1" d="M85.79,54.13a70,70,0,0,1-26-6.22c-9.47,9.73-15.49,22.41-18.67,33.45,12.6-5.26,26.31-4.4,33.64-9.1S86.42,59.79,85.79,54.13Z"/><path class="cls-1" d="M180.52,155.13c-.53-2.26-6.22-36.56-21.51-49.82-3-2.72-12.34-8.61-12.38-8.5l-.15-2.13c-2.54-3.48-6.07-9.22-10.59-13.11a30.27,30.27,0,0,0-15.25-6.63c-1.93,3.46-5.69,5.3-8.45,9.5C103.08,98.3,116,121,117.76,125a90.52,90.52,0,0,0,18.92-3.53c7.48-6,10.1-12.31,10.18-13a143.72,143.72,0,0,1,10.61,19.89c11.84,27.51,13.26,47.63,17.34,51,1.89,1.66,4,1.36,4.74-1.21C181.77,170.84,181.79,162.37,180.52,155.13Z"/><path class="cls-1" d="M49.46,114.74c-.3-.82-.42-2.07-4.09-4.13-2.8-1.57-6.87-1.62-7.78-2.3-5.28-3.94.57-51.83,30.48-68.85A53.25,53.25,0,0,0,46.76,55.83a73.52,73.52,0,0,0-14.86,45.4A228.22,228.22,0,0,0,.16,140.48s-.49,2,.26,2.84c.3.09,21.69-18.31,22.07-17.55q5.39-5.92,11-11.27s-.43,7.15.92,8.09c1.29.78,12.14,1.37,12.19,1.52a202.36,202.36,0,0,0-18.57,16.6c-.84,1.35-10.14,26.88-9,32.13,1.82,1.12,5.48-.83,6.14-1.59,1-3.51,36.08-43.94,36.48-42.37,8.66,2.05,22.93,2.76,34.08,3.37,19.78,1.1,32.41-4.27,40.17-10.19C104.8,135.13,53.54,125.72,49.46,114.74Z"/><path class="cls-1" d="M59.9,47.82a68,68,0,0,0,25.51,3.75c9-.49,11.41-2.62,18.69-1.07,5.93,1.27,10.87,4.09,15,1.53,2.26-1.39,3.39-3.82,3.82-3.72-.61-.43-1.21-.88-1.82-1.3a31.14,31.14,0,0,0,0-11.09C117.91,17.14,98.15-.74,79,0c-6.45-.16-20.83,4.3-18.34,7,.63,0,25.87,9.21,29.58,15.61C94,26.52,106,39.05,106,39.2a46.93,46.93,0,0,0-28-2.83c-1.08.2-2.41.51-3.89.94A53.26,53.26,0,0,0,59.9,47.82Z"/><path class="cls-2" d="M123,48.31h0l.07,0A.1.1,0,0,0,123,48.31Z"/><path class="cls-3" d="M87.29,54.17c-.44-.35-1.55-.43-1.5,0Z"/><path class="cls-3" d="M113.54,55.43l.17,0C113.63,55.42,113.57,55.41,113.54,55.43Z"/><path class="cls-3" d="M78.93,124.13h0S78.92,124.14,78.93,124.13Z"/></svg>